<svg width="103" height="99" viewBox="0 0 103 99" fill="none" xmlns="http://www.w3.org/2000/svg">
<rect width="103" height="98.2462" rx="49.1231" fill="#313131" style="fill:#313131;fill:color(display-p3 0.1922 0.1922 0.1922);fill-opacity:1;"/>
<path d="M70.555 19.1606C70.4925 19.1556 70.44 19.1231 70.375 19.1231H43.5C39.365 19.1231 36 22.4881 36 26.6231V29.1231C36 30.5031 37.12 31.6231 38.5 31.6231C39.88 31.6231 41 30.5031 41 29.1231V26.6231C41 25.2456 42.1225 24.1231 43.5 24.1231H55.1475L54.385 24.3781C52.36 25.0781 51 26.9856 51 29.1231V66.6231H43.5C42.1225 66.6231 41 65.5006 41 64.1231V59.1231C41 57.7431 39.88 56.6231 38.5 56.6231C37.12 56.6231 36 57.7431 36 59.1231V64.1231C36 68.2581 39.365 71.6231 43.5 71.6231H51V74.1231C51 76.8806 53.2425 79.1231 56 79.1231C56.535 79.1231 57.0425 79.0456 57.5925 78.8756L72.6125 73.8681C74.64 73.1681 76 71.2606 76 69.1231V24.1231C76 21.2081 73.4875 18.9231 70.555 19.1606Z" fill="url(#paint0_linear_1_134)" style=""/>
<path d="M42.7675 42.3556L32.7675 32.3556C32.0525 31.6406 30.9775 31.4256 30.0425 31.8131C29.11 32.2006 28.5 33.1131 28.5 34.1231V41.6231H18.5C17.12 41.6231 16 42.7431 16 44.1231C16 45.5031 17.12 46.6231 18.5 46.6231H28.5V54.1231C28.5 55.1331 29.11 56.0456 30.0425 56.4331C30.9775 56.8206 32.0525 56.6056 32.7675 55.8906L42.7675 45.8906C43.745 44.9131 43.745 43.3331 42.7675 42.3556Z" fill="url(#paint1_linear_1_134)" style=""/>
<defs>
<linearGradient id="paint0_linear_1_134" x1="25.6158" y1="49.123" x2="103.159" y2="49.123" gradientUnits="userSpaceOnUse">
<stop stop-color="#89D3DC" style="stop-color:#89D3DC;stop-color:color(display-p3 0.5373 0.8275 0.8627);stop-opacity:1;"/>
<stop offset="1" stop-color="#7FC786" style="stop-color:#7FC786;stop-color:color(display-p3 0.4980 0.7804 0.5255);stop-opacity:1;"/>
</linearGradient>
<linearGradient id="paint1_linear_1_134" x1="8.86072" y1="44.123" x2="62.1727" y2="44.123" gradientUnits="userSpaceOnUse">
<stop stop-color="#89D3DC" style="stop-color:#89D3DC;stop-color:color(display-p3 0.5373 0.8275 0.8627);stop-opacity:1;"/>
<stop offset="1" stop-color="#7FC786" style="stop-color:#7FC786;stop-color:color(display-p3 0.4980 0.7804 0.5255);stop-opacity:1;"/>
</linearGradient>
</defs>
</svg>
