<svg width="103" height="99" viewBox="0 0 103 99" fill="none" xmlns="http://www.w3.org/2000/svg">
<rect width="103" height="98.2462" rx="49.1231" fill="#313131" style="fill:#313131;fill:color(display-p3 0.1922 0.1922 0.1922);fill-opacity:1;"/>
<path d="M52.0005 20C40.4181 20 30.9951 29.423 30.9951 41.0053C30.9951 55.3793 49.7929 76.4812 50.5932 77.3725C51.345 78.2098 52.6574 78.2083 53.4078 77.3725C54.2081 76.4812 73.0059 55.3793 73.0059 41.0053C73.0057 29.423 63.5829 20 52.0005 20ZM52.0005 51.5736C46.1731 51.5736 41.4323 46.8327 41.4323 41.0053C41.4323 35.1779 46.1732 30.4371 52.0005 30.4371C57.8278 30.4371 62.5686 35.178 62.5686 41.0054C62.5686 46.8328 57.8278 51.5736 52.0005 51.5736Z" fill="url(#paint0_linear_1_1004)" style=""/>
<defs>
<linearGradient id="paint0_linear_1_1004" x1="20.0889" y1="48.9998" x2="101.53" y2="48.9998" gradientUnits="userSpaceOnUse">
<stop stop-color="#89D3DC" style="stop-color:#89D3DC;stop-color:color(display-p3 0.5373 0.8275 0.8627);stop-opacity:1;"/>
<stop offset="1" stop-color="#7FC786" style="stop-color:#7FC786;stop-color:color(display-p3 0.4980 0.7804 0.5255);stop-opacity:1;"/>
</linearGradient>
</defs>
</svg>
