<svg width="103" height="99" viewBox="0 0 103 99" fill="none" xmlns="http://www.w3.org/2000/svg">
<rect width="103" height="98.2462" rx="49.1231" fill="#313131" style="fill:#313131;fill:color(display-p3 0.1922 0.1922 0.1922);fill-opacity:1;"/>
<path d="M70.6239 58.8462C67.5126 56.1852 64.3552 54.5732 61.2821 57.2303L59.4471 58.8362C58.1045 60.0019 55.6082 65.4486 45.9569 54.3461C36.3075 43.2577 42.0497 41.5312 43.3943 40.3756L45.2393 38.7677C48.2963 36.1046 47.1427 32.7522 44.9379 29.3012L43.6073 27.211C41.3925 23.7681 38.9806 21.507 35.9156 24.166L34.2595 25.6131C32.9048 26.6 29.1182 29.8077 28.1997 35.9016C27.0943 43.2135 30.5814 51.5866 38.5706 60.7737C46.5498 69.9648 54.3621 74.5814 61.7624 74.501C67.9126 74.4347 71.6268 71.1345 72.7885 69.9346L74.4507 68.4855C77.5077 65.8285 75.6084 63.1232 72.4951 60.4561L70.6239 58.8462Z" fill="url(#paint0_linear_1_1009)" style=""/>
<defs>
<linearGradient id="paint0_linear_1_1009" x1="15.539" y1="48.7509" x2="108.591" y2="48.7509" gradientUnits="userSpaceOnUse">
<stop stop-color="#89D3DC" style="stop-color:#89D3DC;stop-color:color(display-p3 0.5373 0.8275 0.8627);stop-opacity:1;"/>
<stop offset="1" stop-color="#7FC786" style="stop-color:#7FC786;stop-color:color(display-p3 0.4980 0.7804 0.5255);stop-opacity:1;"/>
</linearGradient>
</defs>
</svg>
