<svg width="103" height="99" viewBox="0 0 103 99" fill="none" xmlns="http://www.w3.org/2000/svg">
<rect width="103" height="98.2462" rx="49.1231" fill="#313131" style="fill:#313131;fill:color(display-p3 0.1922 0.1922 0.1922);fill-opacity:1;"/>
<path d="M51.4992 37.7134C45.2069 37.7134 40.0879 42.8324 40.0879 49.1243C40.0879 55.4167 45.2069 60.5356 51.4992 60.5356C57.7911 60.5356 62.9101 55.4167 62.9101 49.1243C62.9101 42.8324 57.7911 37.7134 51.4992 37.7134ZM58.2741 46.9754L50.0992 55.1503C49.756 55.4934 49.306 55.6652 48.8563 55.6652C48.4067 55.6652 47.9571 55.4939 47.6139 55.1503L44.4899 52.0262C43.8036 51.3404 43.8036 50.2278 44.4899 49.5415C45.1758 48.8552 46.2884 48.8552 46.9747 49.5415L48.8563 51.4231L55.7893 44.4906C56.4752 43.8043 57.5878 43.8043 58.2741 44.4906C58.9604 45.1764 58.9604 46.2891 58.2741 46.9754Z" fill="url(#paint0_linear_1_125)" style=""/>
<path d="M76.9406 35.4276L76.9387 35.381C76.9127 34.8058 76.8953 34.1971 76.8848 33.52C76.8359 30.2177 74.2109 27.4862 70.9082 27.3016C64.0223 26.9174 58.6954 24.672 54.144 20.2357L54.1052 20.1987C52.6206 18.8375 50.3812 18.8375 48.8962 20.1987L48.8573 20.2357C44.3059 24.672 38.979 26.9174 32.0931 27.3021C28.7909 27.4862 26.1654 30.2177 26.1165 33.5204C26.1064 34.193 26.0886 34.8016 26.0626 35.381L26.0598 35.4893C25.926 42.5109 25.7596 51.2497 28.6831 59.1815C30.2905 63.5433 32.725 67.3349 35.9185 70.4516C39.5557 74.001 44.3196 76.8189 50.0778 78.8266C50.2651 78.892 50.4598 78.945 50.6581 78.9847C50.9377 79.0405 51.2192 79.0683 51.5007 79.0683C51.7821 79.0683 52.0641 79.0405 52.3432 78.9847C52.5415 78.945 52.7376 78.8915 52.9258 78.8257C58.6772 76.8143 63.4361 73.9951 67.07 70.4461C70.2621 67.3285 72.6966 63.536 74.3055 59.1733C77.2399 51.2177 77.074 42.4625 76.9406 35.4276ZM51.4997 64.0496C43.2696 64.0496 36.5742 57.3542 36.5742 49.124C36.5742 40.8939 43.2696 34.1985 51.4997 34.1985C59.7295 34.1985 66.4253 40.8939 66.4253 49.124C66.4253 57.3542 59.7295 64.0496 51.4997 64.0496Z" fill="url(#paint1_linear_1_125)" style=""/>
<defs>
<linearGradient id="paint0_linear_1_125" x1="34.1632" y1="49.1245" x2="78.4056" y2="49.1245" gradientUnits="userSpaceOnUse">
<stop stop-color="#89D3DC" style="stop-color:#89D3DC;stop-color:color(display-p3 0.5373 0.8275 0.8627);stop-opacity:1;"/>
<stop offset="1" stop-color="#7FC786" style="stop-color:#7FC786;stop-color:color(display-p3 0.4980 0.7804 0.5255);stop-opacity:1;"/>
</linearGradient>
<linearGradient id="paint1_linear_1_125" x1="12.7602" y1="49.1229" x2="111.627" y2="49.1229" gradientUnits="userSpaceOnUse">
<stop stop-color="#89D3DC" style="stop-color:#89D3DC;stop-color:color(display-p3 0.5373 0.8275 0.8627);stop-opacity:1;"/>
<stop offset="1" stop-color="#7FC786" style="stop-color:#7FC786;stop-color:color(display-p3 0.4980 0.7804 0.5255);stop-opacity:1;"/>
</linearGradient>
</defs>
</svg>
