<svg width="103" height="99" viewBox="0 0 103 99" fill="none" xmlns="http://www.w3.org/2000/svg">
<rect width="103" height="98.2462" rx="49.1231" fill="#313131" style="fill:#313131;fill:color(display-p3 0.1922 0.1922 0.1922);fill-opacity:1;"/>
<path fill-rule="evenodd" clip-rule="evenodd" d="M36.7381 53.0164C33.0551 54.342 29.4571 55.1614 25.8965 55.5665C25.857 55.4146 25.8188 55.2621 25.7821 55.1094L21 53.2689V45.4589L25.7821 43.6186C26.3955 41.0624 27.4022 38.6321 28.7786 36.3984L26.6944 31.7107L32.2156 26.1895L36.9032 28.2737C39.1369 26.8974 41.5672 25.8906 44.1156 25.285L45.9639 20.4952H53.7738L55.6143 25.285C58.1626 25.8906 60.5929 26.8974 62.8266 28.2737L63.8539 27.817C63.8919 27.8454 63.9308 27.873 63.9706 27.8996L66.4661 29.5714C64.3551 32.6584 61.5946 35.8641 58.544 38.855C56.1864 36.9075 53.1623 35.7377 49.865 35.7377C42.338 35.7377 36.2426 41.8332 36.2426 49.36C36.2426 50.6265 36.4151 51.8528 36.7381 53.0164ZM63.3627 51.2665C67.2405 48.5847 70.6633 45.5336 73.5791 42.241C73.715 42.6957 73.8381 43.155 73.9479 43.6186L78.7298 45.4589V53.2689L73.9479 55.1094C73.3422 57.6577 72.3276 60.088 70.9591 62.3217L73.0355 67.0092L67.5142 72.5306L62.8266 70.4542C60.6007 71.8306 58.1626 72.8373 55.6143 73.4429L53.7738 78.2249H45.9639L44.1234 73.4429C41.5672 72.8373 39.1369 71.8227 36.9032 70.4542L32.2156 72.5306L26.6944 67.0092L28.7786 62.3217C28.6087 62.0468 28.4443 61.7688 28.2858 61.4878C32.7002 61.7889 37.3307 61.4684 42.0094 60.4978C44.2288 62.0677 46.9387 62.9902 49.865 62.9902C56.7449 62.9902 62.4352 57.8912 63.3627 51.2665ZM77.03 34.161C72.6147 41.292 65.9357 47.7709 57.4544 52.5044C45.9114 58.9412 33.3736 60.8436 22.7871 58.6534C22.5983 58.6097 22.471 58.4329 22.4896 58.24C22.508 58.0471 22.6665 57.8976 22.8602 57.8906C30.409 57.5301 38.0642 55.4896 46.2421 50.9282C54.6256 46.2512 64.3903 37.0103 69.3189 28.986L65.1249 26.1765C64.9221 26.0405 64.8128 25.8019 64.8424 25.5595C64.8719 25.3169 65.0354 25.1117 65.2651 25.0285L78.9843 20.062C79.2838 19.9535 79.6167 19.9887 79.887 20.1576C80.1572 20.3265 80.3348 20.6103 80.3685 20.9273L81.9964 36.2104C82.0229 36.4608 81.9023 36.7039 81.6867 36.8341C81.4712 36.9641 81.1998 36.9576 80.9908 36.8174L77.03 34.161Z" fill="url(#paint0_linear_1_118)" style=""/>
<defs>
<linearGradient id="paint0_linear_1_118" x1="5.16413" y1="49.1123" x2="123.417" y2="49.1123" gradientUnits="userSpaceOnUse">
<stop stop-color="#89D3DC" style="stop-color:#89D3DC;stop-color:color(display-p3 0.5373 0.8275 0.8627);stop-opacity:1;"/>
<stop offset="1" stop-color="#7FC786" style="stop-color:#7FC786;stop-color:color(display-p3 0.4980 0.7804 0.5255);stop-opacity:1;"/>
</linearGradient>
</defs>
</svg>
